<svg xmlns="http://www.w3.org/2000/svg" viewBox="0 0 32 32" fill="#b967ff">
  <!-- Ear tufts -->
  <rect x="8" y="0" width="2" height="2"/>
  <rect x="22" y="0" width="2" height="2"/>
  <rect x="8" y="2" width="2" height="2"/>
  <rect x="22" y="2" width="2" height="2"/>

  <!-- Head outline (8-bit circle, same style as Chronos) -->
  <rect x="12" y="2" width="8" height="2"/>
  <rect x="8" y="4" width="4" height="2"/>
  <rect x="20" y="4" width="4" height="2"/>
  <rect x="6" y="6" width="2" height="4"/>
  <rect x="24" y="6" width="2" height="4"/>
  <rect x="4" y="10" width="2" height="4"/>
  <rect x="26" y="10" width="2" height="4"/>
  <rect x="2" y="14" width="2" height="4"/>
  <rect x="28" y="14" width="2" height="4"/>
  <rect x="4" y="18" width="2" height="4"/>
  <rect x="26" y="18" width="2" height="4"/>
  <rect x="6" y="22" width="2" height="4"/>
  <rect x="24" y="22" width="2" height="4"/>
  <rect x="8" y="26" width="4" height="2"/>
  <rect x="20" y="26" width="4" height="2"/>
  <rect x="12" y="28" width="8" height="2"/>

  <!-- Left eye (ring) -->
  <rect x="9" y="10" width="4" height="2"/>
  <rect x="7" y="12" width="2" height="4"/>
  <rect x="13" y="12" width="2" height="4"/>
  <rect x="9" y="16" width="4" height="2"/>
  <!-- left pupil -->
  <rect x="10" y="13" width="2" height="2"/>

  <!-- Right eye (ring) -->
  <rect x="19" y="10" width="4" height="2"/>
  <rect x="17" y="12" width="2" height="4"/>
  <rect x="23" y="12" width="2" height="4"/>
  <rect x="19" y="16" width="4" height="2"/>
  <!-- right pupil -->
  <rect x="20" y="13" width="2" height="2"/>

  <!-- Beak -->
  <rect x="15" y="16" width="2" height="4"/>
</svg>
